<svg id="Capa_1" data-name="Capa 1" xmlns="http://www.w3.org/2000/svg" viewBox="0 0 408 484.5"><title>metro</title><g id="directions-subway"><path d="M242.25,0c-112.2,0-204,12.75-204,102V344.25c0,48.45,40.8,89.25,89.25,89.25L89.25,471.75V484.5h306V471.75L357,433.5c48.45,0,89.25-40.8,89.25-89.25V102C446.25,12.75,354.45,0,242.25,0ZM127.5,382.5c-20.4,0-38.25-17.85-38.25-38.25S107.1,306,127.5,306s38.25,17.85,38.25,38.25S147.9,382.5,127.5,382.5Zm89.25-153H89.25V102h127.5ZM357,382.5c-20.4,0-38.25-17.85-38.25-38.25S336.6,306,357,306s38.25,17.85,38.25,38.25S377.4,382.5,357,382.5Zm38.25-153H267.75V102h127.5Z" transform="translate(-38.25)"/></g></svg>