<svg id="Capa_1" data-name="Capa 1" xmlns="http://www.w3.org/2000/svg" viewBox="0 0 475.08 453.1"><title>star</title><path d="M475.08,186.57q0-10.56-16-13.13L315.77,152.6,251.53,22.69Q246.11,11,237.54,11t-14,11.7L159.31,152.6,16,173.44Q0,176,0,186.57q0,6,7.14,13.71L111.06,301.35,86.51,444.1a46.37,46.37,0,0,0-.57,5.71,16.83,16.83,0,0,0,3,10.14q3,4.15,9,4.14,5.14,0,11.42-3.42l128.19-67.39,128.2,67.39a23.11,23.11,0,0,0,11.42,3.42,10.06,10.06,0,0,0,8.71-4.14,16.86,16.86,0,0,0,3-10.14,43.13,43.13,0,0,0-.29-5.71L364,301.35,467.65,200.28Q475.08,192.86,475.08,186.57Z" transform="translate(0 -10.99)"/></svg>